<svg width="37" height="36" viewBox="0 0 37 36" fill="none" xmlns="http://www.w3.org/2000/svg">
<path d="M21.57 29.9997H16.5468V21.9067H15.4863C14.8388 21.9067 14.3142 21.3821 14.3142 20.7346V18.6137C14.3142 17.9662 14.8388 17.4416 15.4863 17.4416H16.5468V14.6509C16.5468 12.3402 18.4221 10.4648 20.7328 10.4648H23.7468C24.3942 10.4648 24.9189 10.9895 24.9189 11.6369V14.316C24.9189 14.9635 24.3942 15.4881 23.7468 15.4881H21.57V17.4416H23.6686C24.0258 17.4416 24.3496 17.5979 24.5728 17.8658C24.7961 18.1337 24.8854 18.4909 24.8184 18.8369L24.3942 20.9579C24.2826 21.5048 23.8026 21.8955 23.2444 21.8955H21.57V29.9997V29.9997ZM18.2212 28.3253H19.8956V20.2323H22.8426L23.0658 19.116H19.9068V14.9858C19.9068 14.3383 20.4314 13.8137 21.0789 13.8137H23.2556V12.1393H20.7328C19.3486 12.1393 18.2212 13.2667 18.2212 14.6509V19.116H15.9886V20.2323H18.2212V28.3253Z" fill="#4B5563"/>
<path d="M21.8488 30H15.1512C9.08977 30 6.5 27.4102 6.5 21.3488V14.6512C6.5 8.58977 9.08977 6 15.1512 6H21.8488C27.9102 6 30.5 8.58977 30.5 14.6512V21.3488C30.5 27.4102 27.9102 30 21.8488 30ZM15.1512 7.67442C10.0051 7.67442 8.17442 9.50512 8.17442 14.6512V21.3488C8.17442 26.4949 10.0051 28.3256 15.1512 28.3256H21.8488C26.9949 28.3256 28.8256 26.4949 28.8256 21.3488V14.6512C28.8256 9.50512 26.9949 7.67442 21.8488 7.67442H15.1512Z" fill="#4B5563"/>
</svg>
