<svg width="102" height="28" viewBox="0 0 102 28" fill="none" xmlns="http://www.w3.org/2000/svg">
<g clip-path="url(#clip0_327_622)">
<mask id="mask0_327_622" style="mask-type:luminance" maskUnits="userSpaceOnUse" x="0" y="0" width="102" height="28">
<path d="M102 0H0V28H102V0Z" fill="white"/>
</mask>
<g mask="url(#mask0_327_622)">
<path d="M28.1801 19.0597C27.1348 19.0015 26.1187 18.6932 25.2173 18.1607C24.3159 17.6283 23.5555 16.8872 23.0001 15.9997C23.6701 10.6597 25.6201 8.9997 28.2001 8.9997C30.7801 8.9997 32.7401 10.9997 32.7401 13.9997C32.7401 16.9997 30.7401 18.9997 28.2001 18.9997M28.2001 5.6597C26.3793 5.58592 24.5906 6.15441 23.1465 7.2658C21.7025 8.37719 20.6949 9.96076 20.3001 11.7397C19.4441 9.94628 18.7965 8.06063 18.3701 6.1197H12.0001V14.0197C12.0001 16.8897 10.7001 19.0197 8.15008 19.0197C5.60008 19.0197 4.15008 16.8997 4.15008 14.0197V6.1197H0.490084V14.0197C0.407019 16.2089 1.16158 18.3474 2.60008 19.9997C3.30222 20.7642 4.15993 21.3695 5.11552 21.7749C6.0711 22.1802 7.10242 22.3762 8.14008 22.3497C12.5501 22.3497 15.6401 18.9597 15.6401 14.1097V8.7697C16.389 11.6432 17.6271 14.3664 19.3001 16.8197L17.3401 27.9997H21.0601L22.3501 20.0797C22.7771 20.4474 23.2318 20.7817 23.7101 21.0797C24.9528 21.8646 26.3812 22.3063 27.8501 22.3597H28.1901C29.2827 22.3711 30.3664 22.1613 31.3758 21.7428C32.3853 21.3244 33.2996 20.7061 34.0638 19.9251C34.828 19.144 35.4263 18.2165 35.8227 17.1982C36.219 16.1799 36.4052 15.0919 36.3701 13.9997C36.3956 12.9116 36.2021 11.8295 35.801 10.8176C35.4 9.8057 34.7996 8.88479 34.0356 8.10958C33.2716 7.33437 32.3595 6.72067 31.3536 6.30496C30.3477 5.88925 29.2685 5.68002 28.1801 5.6897" fill="#14A800"/>
<path d="M80.8 7.85971V6.17971H77.2V21.8098H80.85V15.6898C80.85 11.9198 81.19 9.20971 86.25 9.55971V5.99971C83.89 5.81971 82.05 6.30971 80.8 7.86971" fill="#14A800"/>
<path d="M55.51 6.16992L52.87 17.1099L50.05 6.16992H45.41L42.59 17.1099L39.95 6.16992H36.26L40.31 21.8199H44.69L47.73 10.7099L50.74 21.8199H55.12L59.4 6.16992H55.51Z" fill="#14A800"/>
<path d="M67.4201 19.0698C64.8301 19.0698 62.8901 17.0198 62.8901 14.0698C62.8901 11.1198 64.8901 9.06973 67.4201 9.06973C69.9501 9.06973 72.0001 10.9998 72.0001 13.9998C72.0001 16.9998 70.0001 18.9998 67.4601 18.9998M67.4601 5.64973C66.3658 5.63434 65.2798 5.84087 64.2675 6.25685C63.2552 6.67282 62.3377 7.28961 61.5705 8.06999C60.8032 8.85036 60.202 9.77814 59.8032 10.7973C59.4044 11.8165 59.2162 12.9059 59.2501 13.9998C59.2117 15.0974 59.3948 16.1915 59.7883 17.2168C60.1818 18.2422 60.7778 19.1778 61.5407 19.9679C62.3037 20.7579 63.2179 21.3863 64.2288 21.8154C65.2398 22.2446 66.3268 22.4657 67.4251 22.4657C68.5234 22.4657 69.6104 22.2446 70.6214 21.8154C71.6324 21.3863 72.5466 20.7579 73.3095 19.9679C74.0724 19.1778 74.6684 18.2422 75.0619 17.2168C75.4555 16.1915 75.6385 15.0974 75.6001 13.9998C75.627 12.9121 75.4347 11.8302 75.0348 10.8184C74.6349 9.80652 74.0355 8.88552 73.2723 8.11016C72.509 7.3348 71.5976 6.72093 70.5922 6.30511C69.5868 5.88929 68.5081 5.68001 67.4201 5.68973" fill="#14A800"/>
<path d="M91.4701 14.13H92.3101L97.4001 21.82H101.51L95.6601 13.29C97.0671 12.7098 98.2694 11.7237 99.1136 10.4574C99.9578 9.19104 100.406 7.70193 100.4 6.18H96.7701C96.7701 9.55 94.1101 10.83 91.4701 10.83V0H87.8201V21.82H91.4601L91.4701 14.13Z" fill="#14A800"/>
</g>
</g>
<defs>
<clipPath id="clip0_327_622">
<rect width="102" height="28" fill="white"/>
</clipPath>
</defs>
</svg>
