<svg width="18" height="18" viewBox="0 0 18 18" fill="none" xmlns="http://www.w3.org/2000/svg">
<path d="M8.2875 11.2125L6.9 12.6C6.6075 12.8925 6.1425 12.8925 5.8425 12.6075C5.76 12.525 5.6775 12.45 5.595 12.3675C4.8225 11.5875 4.125 10.77 3.5025 9.915C2.8875 9.06 2.3925 8.205 2.0325 7.3575C1.68 6.5025 1.5 5.685 1.5 4.905C1.5 4.395 1.59 3.9075 1.77 3.4575C1.95 3 2.235 2.58 2.6325 2.205C3.1125 1.7325 3.6375 1.5 4.1925 1.5C4.4025 1.5 4.6125 1.545 4.8 1.635C4.995 1.725 5.1675 1.86 5.3025 2.055L7.0425 4.5075C7.1775 4.695 7.275 4.8675 7.3425 5.0325C7.41 5.19 7.4475 5.3475 7.4475 5.49C7.4475 5.67 7.395 5.85 7.29 6.0225C7.1925 6.195 7.05 6.375 6.87 6.555L6.3 7.1475C6.2175 7.23 6.18 7.3275 6.18 7.4475C6.18 7.5075 6.1875 7.56 6.2025 7.62C6.225 7.68 6.2475 7.725 6.2625 7.77C6.3975 8.0175 6.63 8.34 6.96 8.73C7.2975 9.12 7.6575 9.5175 8.0475 9.915C8.1225 9.99 8.205 10.065 8.28 10.14C8.58 10.4325 8.5875 10.9125 8.2875 11.2125Z" fill="#B3BFD1"/>
<path d="M16.4777 13.7478C16.4777 13.9578 16.4402 14.1753 16.3652 14.3853C16.3427 14.4453 16.3202 14.5053 16.2902 14.5653C16.1627 14.8353 15.9977 15.0903 15.7802 15.3303C15.4127 15.7353 15.0077 16.0278 14.5502 16.2153C14.5427 16.2153 14.5352 16.2228 14.5277 16.2228C14.0852 16.4028 13.6052 16.5003 13.0877 16.5003C12.3227 16.5003 11.5052 16.3203 10.6427 15.9528C9.78019 15.5853 8.91769 15.0903 8.06269 14.4678C7.77019 14.2503 7.4777 14.0328 7.2002 13.8003L9.65269 11.3478C9.86269 11.5053 10.0502 11.6253 10.2077 11.7078C10.2452 11.7228 10.2902 11.7453 10.3427 11.7678C10.4027 11.7903 10.4627 11.7978 10.5302 11.7978C10.6577 11.7978 10.7552 11.7528 10.8377 11.6703L11.4077 11.1078C11.5952 10.9203 11.7752 10.7778 11.9477 10.6878C12.1202 10.5828 12.2927 10.5303 12.4802 10.5303C12.6227 10.5303 12.7727 10.5603 12.9377 10.6278C13.1027 10.6953 13.2752 10.7928 13.4627 10.9203L15.9452 12.6828C16.1402 12.8178 16.2752 12.9753 16.3577 13.1628C16.4327 13.3503 16.4777 13.5378 16.4777 13.7478Z" fill="#B3BFD1"/>
</svg>
