<svg width="24" height="24" viewBox="0 0 24 24" fill="none" xmlns="http://www.w3.org/2000/svg">
<path d="M15 22H6V19.0996C6 18.3713 5.88259 17.6478 5.65228 16.9568L5.60768 16.823C5.53598 16.6079 5.44911 16.3982 5.34772 16.1954L5.27925 16.0585C5.09429 15.6886 4.85091 15.3509 4.55847 15.0585C4.19 14.69 3.90021 14.2505 3.70668 13.7667L3.48407 13.2102C3.16429 12.4107 3 11.5576 3 10.6966V9C3 8.02192 3.28951 7.06573 3.83205 6.25192L4 6L4.87852 4.82864C5.29075 4.279 5.779 3.79075 6.32864 3.37852L6.47538 3.26847C7.15163 2.76127 7.92246 2.39439 8.74254 2.18937C9.24561 2.0636 9.76222 2 10.2808 2H12.382C13.1172 2 13.8424 2.17119 14.5 2.5L15.5541 3.20272C15.8506 3.40042 16.1269 3.62693 16.379 3.87895C16.7903 4.29029 17.1326 4.76526 17.3928 5.28557L17.5 5.5L18 6.5L18.2548 7.0097C18.4181 7.33615 18.5579 7.67378 18.6733 8.02004C18.8901 8.67044 19.1927 9.28904 19.573 9.85948L20.7658 11.6486C20.9185 11.8777 21 12.1469 21 12.4223V12.5496C21 12.838 20.8854 13.1146 20.6815 13.3185C20.5621 13.4379 20.4166 13.5278 20.2565 13.5812L19 14V17.4919C19 17.8172 18.8708 18.1292 18.6407 18.3593C18.5475 18.4525 18.4399 18.5301 18.322 18.589L18.0926 18.7037C17.7029 18.8986 17.2732 19 16.8374 19H15V22Z" fill="url(#paint0_linear_2416_3978)" stroke="url(#paint1_linear_2416_3978)"/>
<path fill-rule="evenodd" clip-rule="evenodd" d="M10.3048 6.5C10.3048 6.22386 10.5286 6 10.8048 6H11.8048C12.0809 6 12.3048 6.22386 12.3048 6.5V7.17071C12.6616 7.2968 12.9873 7.48847 13.2677 7.73122L13.8513 7.3988C14.0912 7.26213 14.3965 7.34585 14.5332 7.5858L15.0282 8.45473C15.1648 8.69468 15.0811 8.99999 14.8412 9.13666L14.2579 9.46887C14.2887 9.64126 14.3048 9.81875 14.3048 10C14.3048 10.1679 14.291 10.3327 14.2645 10.4931L14.852 10.8179C15.0937 10.9514 15.1814 11.2556 15.0478 11.4973L14.5641 12.3725C14.4305 12.6142 14.1263 12.7019 13.8846 12.5683L13.2967 12.2433C13.0099 12.4982 12.6739 12.6988 12.3048 12.8293V13.5C12.3048 13.7761 12.0809 14 11.8048 14H10.8048C10.5286 14 10.3048 13.7761 10.3048 13.5V12.8293C9.94809 12.7032 9.62236 12.5116 9.34206 12.2689L8.75865 12.6012C8.5187 12.7379 8.21339 12.6542 8.07672 12.4142L7.58178 11.5453C7.44511 11.3053 7.52883 11 7.76878 10.8634L8.3517 10.5313C8.32088 10.3589 8.30479 10.1813 8.30479 10C8.30479 9.83196 8.31861 9.66714 8.34517 9.50663L7.75807 9.18214C7.51639 9.04856 7.42875 8.74435 7.56233 8.50267L8.04607 7.62745C8.17965 7.38577 8.48386 7.29813 8.72554 7.43171L9.31312 7.75647C9.59985 7.50174 9.93575 7.30114 10.3048 7.17071V6.5ZM11.305 11.5C12.1335 11.5 12.805 10.8284 12.805 10C12.805 9.17157 12.1335 8.5 11.305 8.5C10.4766 8.5 9.80503 9.17157 9.80503 10C9.80503 10.8284 10.4766 11.5 11.305 11.5Z" fill="white"/>
<defs>
<linearGradient id="paint0_linear_2416_3978" x1="3" y1="22" x2="24.218" y2="17.6321" gradientUnits="userSpaceOnUse">
<stop stop-color="#DAA519"/>
<stop offset="1" stop-color="#F7C76A"/>
</linearGradient>
<linearGradient id="paint1_linear_2416_3978" x1="3" y1="22" x2="24.218" y2="17.6321" gradientUnits="userSpaceOnUse">
<stop stop-color="#DAA519"/>
<stop offset="1" stop-color="#F7C76A"/>
</linearGradient>
</defs>
</svg>
