<svg width="24" height="24" viewBox="0 0 24 24" fill="none" xmlns="http://www.w3.org/2000/svg">
<path d="M7.63004 3.5698C7.80804 3.4718 8.00004 3.6218 8.00004 3.8268V17.3828C8.00004 17.6058 7.84704 17.7948 7.65004 17.8988C7.64335 17.9021 7.63668 17.9054 7.63004 17.9088L5.28004 19.2488C3.64004 20.1888 2.29004 19.4088 2.29004 17.5088V7.7798C2.29004 7.1498 2.74004 6.3698 3.30004 6.0498L7.63004 3.5698ZM14.722 6.1028C14.8054 6.14409 14.8755 6.20779 14.9246 6.28675C14.9737 6.36572 14.9999 6.45681 15 6.5498V19.7028C15 19.7874 14.9784 19.8705 14.9375 19.9445C14.8965 20.0185 14.8375 20.0809 14.7658 20.1258C14.6942 20.1708 14.6123 20.1969 14.5279 20.2016C14.4435 20.2063 14.3592 20.1895 14.283 20.1528L10.033 18.1058C9.94833 18.065 9.87684 18.0011 9.82678 17.9215C9.77672 17.8419 9.75012 17.7498 9.75004 17.6558V4.4468C9.74987 4.36164 9.77146 4.27785 9.81275 4.20337C9.85404 4.12889 9.91367 4.06619 9.98599 4.02122C10.0583 3.97625 10.1409 3.95049 10.226 3.94639C10.311 3.94229 10.3957 3.95999 10.472 3.9978L14.722 6.1028ZM22 6.4898V16.2198C22 16.8498 21.55 17.6298 20.99 17.9498L17.499 19.9508C17.423 19.9945 17.3368 20.0174 17.2491 20.0172C17.1614 20.017 17.0752 19.9938 16.9994 19.9498C16.9235 19.9059 16.8605 19.8427 16.8167 19.7667C16.773 19.6907 16.75 19.6045 16.75 19.5168V6.3298C16.7501 6.24167 16.7734 6.15511 16.8176 6.07889C16.8619 6.00268 16.9255 5.93951 17.002 5.8958L19.01 4.7498C20.65 3.8098 22 4.5898 22 6.4898Z" fill="white"/>
</svg>
