<svg width="24" height="24" viewBox="0 0 24 24" fill="none" xmlns="http://www.w3.org/2000/svg">
<path d="M21.33 14.67C20.28 13.62 19.45 13.96 18.73 14.67L14.58 18.82C14.42 18.98 14.27 19.29 14.23 19.51L14 21.1C13.92 21.67 14.32 22.08 14.89 21.99L16.48 21.76C16.7 21.73 17.01 21.57 17.17 21.41L21.32 17.26C22.05 16.55 22.38 15.72 21.33 14.67ZM6.747 2.065C7.297 1.995 7.75 2.451 7.75 3.005V6.8C7.75 7.06522 7.64464 7.31957 7.45711 7.50711C7.26957 7.69464 7.01522 7.8 6.75 7.8H3C2.448 7.8 1.992 7.35 2.059 6.802C2.386 4.115 4.072 2.412 6.747 2.065ZM20.93 7.8H17.25C16.9848 7.8 16.7304 7.69464 16.5429 7.50711C16.3554 7.31957 16.25 7.06522 16.25 6.8V3.006C16.25 2.452 16.704 1.995 17.254 2.066C19.888 2.41 21.564 4.068 21.93 6.68C22.01 7.27 21.53 7.8 20.93 7.8ZM6.75 16.3C7.01522 16.3 7.26957 16.4054 7.45711 16.5929C7.64464 16.7804 7.75 17.0348 7.75 17.3V20.92C7.75 21.52 7.22 22 6.62 21.92C4.05 21.538 2.43 19.892 2.074 17.31C1.998 16.759 2.455 16.3 3.013 16.3H6.75ZM7.75 10.3C7.75 10.0348 7.64464 9.78043 7.45711 9.59289C7.26957 9.40536 7.01522 9.3 6.75 9.3H3C2.73478 9.3 2.48043 9.40536 2.29289 9.59289C2.10536 9.78043 2 10.0348 2 10.3V13.8C2 14.0652 2.10536 14.3196 2.29289 14.5071C2.48043 14.6946 2.73478 14.8 3 14.8H6.75C7.01522 14.8 7.26957 14.6946 7.45711 14.5071C7.64464 14.3196 7.75 14.0652 7.75 13.8V10.3ZM14.75 10.3C14.75 10.0348 14.6446 9.78043 14.4571 9.59289C14.2696 9.40536 14.0152 9.3 13.75 9.3H10.25C9.98478 9.3 9.73043 9.40536 9.54289 9.59289C9.35536 9.78043 9.25 10.0348 9.25 10.3V13.8C9.25 14.0652 9.35536 14.3196 9.54289 14.5071C9.73043 14.6946 9.98478 14.8 10.25 14.8H13.75C14.3 14.8 14.75 14.35 14.75 13.8V10.3ZM14.75 3C14.75 2.73478 14.6446 2.48043 14.4571 2.29289C14.2696 2.10536 14.0152 2 13.75 2H10.25C9.98478 2 9.73043 2.10536 9.54289 2.29289C9.35536 2.48043 9.25 2.73478 9.25 3V6.8C9.25 7.06522 9.35536 7.31957 9.54289 7.50711C9.73043 7.69464 9.98478 7.8 10.25 7.8H13.75C14.0152 7.8 14.2696 7.69464 14.4571 7.50711C14.6446 7.31957 14.75 7.06522 14.75 6.8V3Z" fill="url(#paint0_linear_5012_3610)"/>
<defs>
<linearGradient id="paint0_linear_5012_3610" x1="2" y1="22.0024" x2="25.3516" y2="16.6622" gradientUnits="userSpaceOnUse">
<stop stop-color="#DAA519"/>
<stop offset="1" stop-color="#F7C76A"/>
</linearGradient>
</defs>
</svg>
