<svg width="24" height="24" viewBox="0 0 24 24" fill="none" xmlns="http://www.w3.org/2000/svg">
<path d="M19.11 7.47145L15.59 3.95145C12.43 0.801451 10.77 1.96145 8.77005 3.95145L3.11005 9.61145C1.96005 10.7615 1.33005 11.5015 1.10005 12.3215C1.10005 12.3315 1.09005 12.3315 1.09005 12.3315V12.3815C0.680048 13.8415 1.76005 15.0815 3.11005 16.4315L6.64005 19.9415C7.90005 21.2115 8.92005 22.0015 10.05 22.0015C11.18 22.0015 12.15 21.2415 13.45 19.9415L19.11 14.2915C19.6 13.7915 19.96 13.3815 20.24 12.9915V12.9815H20.25C21.53 11.1915 21.19 9.54145 19.11 7.47145ZM18.08 11.3715H18.07C17.77 11.3015 17.46 11.2415 17.15 11.1815C17.13 11.1815 17.11 11.1715 17.08 11.1715C16.38 11.0415 15.67 10.9315 14.95 10.8415H14.91C14.19 10.7515 13.46 10.6815 12.73 10.6415H12.65C12.01 10.6015 11.36 10.5815 10.72 10.5815C9.94005 10.5815 9.16005 10.6215 8.39005 10.6715L8.02005 10.7015C7.44005 10.7415 6.86005 10.8015 6.29005 10.8715L5.83005 10.9315C5.25005 11.0215 4.68005 11.1115 4.11005 11.2215C3.98005 11.2515 3.86005 11.2715 3.73005 11.2915L3.57005 11.3215C3.75005 11.1215 3.96005 10.9115 4.19005 10.6815L9.84005 5.03145C11.66 3.23145 12.28 2.80145 14.52 5.03145L18.03 8.55145C18.57 9.08145 18.93 9.53145 19.15 9.92145C19.15 9.92145 19.15 9.93145 19.16 9.93145C19.58 10.6615 18.9 11.5315 18.08 11.3715ZM20.95 16.8705C20.57 16.4005 20.24 16.0005 19.5 16.0005C18.76 16.0005 18.43 16.4005 18.06 16.8705C17.26 17.8605 16.9 18.9405 17.03 19.9805C17.18 21.1705 18.2 22.0005 19.5 22.0005C20.8 22.0005 21.82 21.1705 21.97 19.9705C22.1 18.9305 21.75 17.8605 20.95 16.8705Z" fill="url(#paint0_linear_5012_3615)"/>
<defs>
<linearGradient id="paint0_linear_5012_3615" x1="1.00195" y1="22.0015" x2="25.3927" y2="16.1455" gradientUnits="userSpaceOnUse">
<stop stop-color="#DAA519"/>
<stop offset="1" stop-color="#F7C76A"/>
</linearGradient>
</defs>
</svg>
