<svg width="27" height="26" viewBox="0 0 27 26" fill="none" xmlns="http://www.w3.org/2000/svg">
<path d="M13.375 11.5528C12.9394 11.5528 12.5781 11.1915 12.5781 10.7559V7.21777C12.5781 6.78215 12.9394 6.4209 13.375 6.4209C13.8106 6.4209 14.1719 6.78215 14.1719 7.21777V10.7559C14.1719 11.2021 13.8106 11.5528 13.375 11.5528Z" fill="#101010"/>
<path d="M13.3967 21.9968C10.6554 21.9968 7.92478 21.5611 5.32166 20.6899C4.35478 20.3711 3.62166 19.6805 3.30291 18.8093C2.98416 17.938 3.09041 16.9393 3.61103 16.068L4.96041 13.8155C5.25791 13.3161 5.52353 12.3811 5.52353 11.7968V9.56551C5.52353 5.21988 9.05103 1.69238 13.3967 1.69238C17.7423 1.69238 21.2698 5.21988 21.2698 9.56551V11.7968C21.2698 12.3705 21.5354 13.3161 21.8329 13.8155L23.1823 16.068C23.6817 16.8968 23.7667 17.8849 23.4373 18.788C23.1079 19.6911 22.3854 20.3818 21.4717 20.6899C18.8685 21.5718 16.1379 21.9968 13.3967 21.9968ZM13.3967 3.29676C9.93291 3.29676 7.11728 6.11238 7.11728 9.57613V11.8074C7.11728 12.668 6.77728 13.9111 6.33103 14.6443L4.98166 16.9074C4.70541 17.3643 4.64166 17.853 4.80103 18.278C4.96041 18.703 5.32166 19.0218 5.83166 19.1918C10.7192 20.8174 16.0954 20.8174 20.9829 19.1918C21.4398 19.043 21.7904 18.703 21.9498 18.2568C22.1198 17.8105 22.0667 17.3218 21.8223 16.9074L20.4729 14.6549C20.0267 13.9218 19.6867 12.6786 19.6867 11.818V9.58676C19.676 6.11238 16.8604 3.29676 13.3967 3.29676Z" fill="#101010"/>
<path d="M13.375 24.7061C12.2382 24.7061 11.1225 24.2386 10.315 23.4311C9.50754 22.6236 9.04004 21.508 9.04004 20.3711H10.6338C10.6338 21.0936 10.9313 21.7948 11.4413 22.3048C11.9513 22.8148 12.6525 23.1123 13.375 23.1123C14.8838 23.1123 16.1163 21.8798 16.1163 20.3711H17.71C17.71 22.7617 15.7657 24.7061 13.375 24.7061Z" fill="#101010"/>
</svg>
