<svg width="25" height="24" viewBox="0 0 25 24" fill="none" xmlns="http://www.w3.org/2000/svg">
<path d="M12.125 21.75C6.475 21.75 1.875 17.15 1.875 11.5C1.875 5.85 6.475 1.25 12.125 1.25C17.775 1.25 22.375 5.85 22.375 11.5C22.375 17.15 17.775 21.75 12.125 21.75ZM12.125 2.75C7.295 2.75 3.375 6.68 3.375 11.5C3.375 16.32 7.295 20.25 12.125 20.25C16.955 20.25 20.875 16.32 20.875 11.5C20.875 6.68 16.955 2.75 12.125 2.75Z" fill="#292D32"/>
<path d="M22.6254 22.7504C22.4354 22.7504 22.2454 22.6804 22.0954 22.5304L20.0954 20.5304C19.8054 20.2404 19.8054 19.7604 20.0954 19.4704C20.3854 19.1804 20.8654 19.1804 21.1554 19.4704L23.1554 21.4704C23.4454 21.7604 23.4454 22.2404 23.1554 22.5304C23.0054 22.6804 22.8154 22.7504 22.6254 22.7504Z" fill="#292D32"/>
</svg>
