<svg width="24" height="24" viewBox="0 0 24 24" fill="none" xmlns="http://www.w3.org/2000/svg">
<path d="M15 22H6V19.0996C6 18.3713 5.88259 17.6478 5.65228 16.9568L5.60768 16.823C5.53598 16.6079 5.44911 16.3982 5.34772 16.1954L5.27925 16.0585C5.09429 15.6886 4.85091 15.3509 4.55847 15.0585C4.19 14.69 3.90021 14.2505 3.70668 13.7667L3.48407 13.2102C3.16429 12.4107 3 11.5576 3 10.6966V9C3 8.02192 3.28951 7.06573 3.83205 6.25192L4 6L4.87852 4.82864C5.29075 4.279 5.779 3.79075 6.32864 3.37852L6.47538 3.26847C7.15163 2.76127 7.92246 2.39439 8.74254 2.18937C9.24561 2.0636 9.76222 2 10.2808 2H12.382C13.1172 2 13.8424 2.17119 14.5 2.5L15.5541 3.20272C15.8506 3.40042 16.1269 3.62693 16.379 3.87895C16.7903 4.29029 17.1326 4.76526 17.3928 5.28557L17.5 5.5L18 6.5L18.2548 7.0097C18.4181 7.33615 18.5579 7.67378 18.6733 8.02004C18.8901 8.67044 19.1927 9.28904 19.573 9.85948L20.7658 11.6486C20.9185 11.8777 21 12.1469 21 12.4223V12.5496C21 12.838 20.8854 13.1146 20.6815 13.3185C20.5621 13.4379 20.4166 13.5278 20.2565 13.5812L19 14V17.4919C19 17.8172 18.8708 18.1292 18.6407 18.3593C18.5475 18.4525 18.4399 18.5301 18.322 18.589L18.0926 18.7037C17.7029 18.8986 17.2732 19 16.8374 19H15V22Z" fill="url(#paint0_linear_2416_3970)" stroke="url(#paint1_linear_2416_3970)"/>
<rect x="6" y="8" width="1" height="1" rx="0.5" fill="white"/>
<rect x="15" y="8" width="1" height="1" rx="0.5" fill="white"/>
<rect x="15" y="11" width="1" height="1" rx="0.5" fill="white"/>
<rect x="6" y="11" width="1" height="1" rx="0.5" fill="white"/>
<rect x="8" y="7" width="6" height="6" rx="3" fill="white"/>
<path d="M10 12H12V14.5C12 14.7761 11.7761 15 11.5 15H10.5C10.2239 15 10 14.7761 10 14.5V12Z" fill="white"/>
<defs>
<linearGradient id="paint0_linear_2416_3970" x1="3" y1="22" x2="24.218" y2="17.6321" gradientUnits="userSpaceOnUse">
<stop stop-color="#DAA519"/>
<stop offset="1" stop-color="#F7C76A"/>
</linearGradient>
<linearGradient id="paint1_linear_2416_3970" x1="3" y1="22" x2="24.218" y2="17.6321" gradientUnits="userSpaceOnUse">
<stop stop-color="#DAA519"/>
<stop offset="1" stop-color="#F7C76A"/>
</linearGradient>
</defs>
</svg>
