<svg width="24" height="24" viewBox="0 0 24 24" fill="none" xmlns="http://www.w3.org/2000/svg">
<path d="M9.5 3C9.22386 3 9 3.22386 9 3.5V3.5C9 3.77614 8.77614 4 8.5 4H4C2.89543 4 2 4.89543 2 6V12C2 13.105 2.895 14 4 14H20C21.105 14 22 13.105 22 12V6C22 4.89543 21.1046 4 20 4H15.5C15.2239 4 15 3.77614 15 3.5V3.5C15 3.22386 14.7761 3 14.5 3H9.5ZM12 10C12.552 10 13 10.448 13 11C13 11.552 12.552 12 12 12C11.448 12 11 11.552 11 11C11 10.448 11.448 10 12 10ZM4 16C3.06834 16 2 16.6122 2 17.5439V18.3365C2 19.2552 2.74479 20 3.66354 20H20.3365C21.2552 20 22 19.2552 22 18.3365V17.5439C22 16.6122 20.9317 16 20 16V16H4V16Z" fill="url(#paint0_linear_2415_3941)"/>
<defs>
<linearGradient id="paint0_linear_2415_3941" x1="2" y1="20" x2="24.9153" y2="13.8335" gradientUnits="userSpaceOnUse">
<stop stop-color="#DAA519"/>
<stop offset="1" stop-color="#F7C76A"/>
</linearGradient>
</defs>
</svg>
