<svg width="44" height="64" viewBox="0 0 44 64" fill="none" xmlns="http://www.w3.org/2000/svg">
<g clip-path="url(#clip0_2404_832)">
<path d="M22 31.9999C22 29.1709 23.1238 26.4578 25.1242 24.4574C27.1246 22.4571 29.8377 21.3333 32.6667 21.3333C35.4956 21.3333 38.2088 22.4571 40.2091 24.4574C42.2095 26.4578 43.3333 29.1709 43.3333 31.9999C43.3333 34.8289 42.2095 37.542 40.2091 39.5424C38.2088 41.5428 35.4956 42.6666 32.6667 42.6666C29.8377 42.6666 27.1246 41.5428 25.1242 39.5424C23.1238 37.542 22 34.8289 22 31.9999Z" fill="#1ABCFE"/>
<path d="M0.666992 53.3334C0.666992 50.5044 1.7908 47.7913 3.79119 45.7909C5.79157 43.7906 8.50468 42.6667 11.3337 42.6667H22.0003V53.3334C22.0003 56.1624 20.8765 58.8755 18.8761 60.8759C16.8757 62.8763 14.1626 64.0001 11.3337 64.0001C8.50468 64.0001 5.79157 62.8763 3.79119 60.8759C1.7908 58.8755 0.666992 56.1624 0.666992 53.3334Z" fill="#0ACF83"/>
<path d="M22 0V21.3333H32.6667C35.4956 21.3333 38.2088 20.2095 40.2091 18.2091C42.2095 16.2088 43.3333 13.4956 43.3333 10.6667C43.3333 7.83769 42.2095 5.12458 40.2091 3.12419C38.2088 1.12381 35.4956 0 32.6667 0L22 0Z" fill="#FF7262"/>
<path d="M0.666992 10.6667C0.666992 13.4956 1.7908 16.2088 3.79119 18.2091C5.79157 20.2095 8.50468 21.3333 11.3337 21.3333H22.0003V0H11.3337C8.50468 0 5.79157 1.12381 3.79119 3.12419C1.7908 5.12458 0.666992 7.83769 0.666992 10.6667Z" fill="#F24E1E"/>
<path d="M0.666992 31.9999C0.666992 34.8289 1.7908 37.542 3.79119 39.5424C5.79157 41.5428 8.50468 42.6666 11.3337 42.6666H22.0003V21.3333H11.3337C8.50468 21.3333 5.79157 22.4571 3.79119 24.4574C1.7908 26.4578 0.666992 29.1709 0.666992 31.9999Z" fill="#A259FF"/>
</g>
<defs>
<clipPath id="clip0_2404_832">
<rect width="42.6667" height="64" fill="white" transform="translate(0.666992)"/>
</clipPath>
</defs>
</svg>
