<svg width="67" height="64" viewBox="0 0 67 64" fill="none" xmlns="http://www.w3.org/2000/svg">
<path fill-rule="evenodd" clip-rule="evenodd" d="M38.2878 1.06177C37.836 1.06177 37.4165 1.15886 37.0292 1.2883C37.8521 1.83845 38.3039 2.5666 38.5298 3.39183C38.546 3.50509 38.5782 3.586 38.5943 3.69926C38.6105 3.79635 38.6266 3.89344 38.6266 3.99053C38.6912 5.41445 38.2555 5.59244 37.9489 6.43385C37.481 7.51798 37.6101 8.68301 38.1748 9.6215C38.2232 9.73477 38.2878 9.86421 38.3684 9.97748C37.7553 5.8837 41.1598 5.26882 41.7891 3.99053C41.8375 2.87404 40.9178 2.12971 40.1917 1.61192C39.4979 1.19122 38.8686 1.06177 38.2878 1.06177ZM43.4187 1.98408C43.3541 2.35624 43.4025 2.25916 43.3864 2.45333C43.3703 2.58278 43.3703 2.74459 43.3542 2.87404C43.322 3.00348 43.2896 3.13293 43.2413 3.26238C43.209 3.39183 43.1606 3.52128 43.1122 3.65072C43.0476 3.78018 42.9992 3.89344 42.9347 4.02288C42.8863 4.08764 42.854 4.15233 42.8056 4.21706C42.7734 4.2656 42.741 4.31414 42.7088 4.36269C42.6281 4.47596 42.5474 4.58922 42.4668 4.6863C42.37 4.78339 42.2893 4.89666 42.1763 4.97757V4.99377C42.0795 5.07467 41.9827 5.17176 41.8698 5.25266C41.5309 5.51155 41.1437 5.70573 40.7887 5.94844C40.6758 6.02935 40.5628 6.09407 40.466 6.19116C40.3531 6.27206 40.2563 6.35296 40.1595 6.45005C40.0465 6.54714 39.9658 6.64423 39.869 6.75749C39.7884 6.85458 39.6916 6.96784 39.627 7.08111C39.5463 7.19438 39.4657 7.30765 39.4011 7.42091C39.3366 7.55036 39.2882 7.66363 39.2236 7.79307C39.1752 7.92252 39.1268 8.03579 39.0946 8.16523C39.0461 8.31086 39.0139 8.44031 38.9816 8.56976C38.9655 8.63451 38.9655 8.71539 38.9494 8.78011C38.9332 8.84486 38.9332 8.90956 38.9171 8.97429C38.9171 9.10373 38.901 9.24936 38.901 9.37881C38.901 9.47589 38.901 9.57298 38.9171 9.67007C38.9171 9.79951 38.9333 9.92896 38.9655 10.0746C38.9817 10.204 39.0139 10.3335 39.0462 10.4629C39.0946 10.5924 39.1269 10.7218 39.1753 10.8513C39.2075 10.9322 39.256 11.0131 39.2882 11.0778L35.5772 9.6377C34.9479 9.45971 34.3348 9.29791 33.7055 9.15228C33.3667 9.07137 33.0278 8.99046 32.689 8.90956C31.7209 8.71539 30.7367 8.56976 29.7524 8.47268C29.7202 8.47268 29.704 8.45647 29.6718 8.45647C28.7036 8.35939 27.7517 8.31085 26.7836 8.31085C26.0736 8.31085 25.3637 8.34318 24.6699 8.39175C23.6856 8.4565 22.7014 8.58592 21.7172 8.74773C21.4751 8.78007 21.2331 8.82864 20.9911 8.87718C20.4909 8.97426 20.0069 9.08753 19.5389 9.2008C19.2969 9.26555 19.0549 9.33025 18.8129 9.39497C18.5708 9.49205 18.345 9.60532 18.1191 9.70241C17.9416 9.78331 17.7641 9.86422 17.5866 9.94513C17.5544 9.96133 17.522 9.96133 17.5059 9.97746C17.3446 10.0584 17.1994 10.1231 17.0542 10.204C17.0057 10.2202 16.9735 10.2363 16.9412 10.2525C16.7637 10.3334 16.5862 10.4305 16.441 10.5114C16.3281 10.56 16.2151 10.6247 16.1183 10.6732C16.0699 10.7056 16.0054 10.738 15.9731 10.7541C15.8279 10.8351 15.6827 10.916 15.5536 10.9969C15.4084 11.0778 15.2793 11.1587 15.1663 11.2396C15.0534 11.3205 14.9405 11.3852 14.8436 11.4661C14.8275 11.4823 14.8114 11.4823 14.7952 11.4984C14.6984 11.5632 14.5855 11.6441 14.4887 11.725C14.4887 11.725 14.4725 11.7412 14.4564 11.7573C14.3758 11.8221 14.2951 11.8868 14.2144 11.9515C14.1822 11.9677 14.1498 12 14.1176 12.0162C14.0369 12.081 13.9562 12.1619 13.8756 12.2266C13.8594 12.2589 13.8272 12.2751 13.811 12.2913C13.7142 12.3884 13.6174 12.4693 13.5206 12.5664C13.5044 12.5664 13.5044 12.5826 13.4883 12.5988C13.3915 12.6797 13.2947 12.7767 13.1979 12.8738C13.1817 12.89 13.1817 12.9062 13.1657 12.9062C13.085 12.9871 13.0043 13.068 12.9236 13.1651C12.8914 13.1974 12.843 13.2298 12.8107 13.2621C12.73 13.3592 12.6332 13.4563 12.5364 13.5534C12.5202 13.5857 12.488 13.6019 12.4718 13.6343C12.3427 13.7638 12.2298 13.8932 12.1007 14.0227C12.0846 14.0389 12.0685 14.055 12.0523 14.0712C11.7941 14.3463 11.5199 14.6213 11.2294 14.8641C10.939 15.123 10.6324 15.3657 10.3259 15.576C10.0032 15.8026 9.6966 15.9967 9.35776 16.1909C9.03506 16.3689 8.69622 16.5307 8.34125 16.6763C8.00242 16.822 7.64745 16.9514 7.29248 17.0647C6.6148 17.2103 5.921 17.4854 5.324 17.5339C5.19492 17.5339 5.04971 17.5663 4.92063 17.5825C4.77541 17.6148 4.64633 17.6472 4.51725 17.6796C4.38817 17.7281 4.25909 17.7766 4.13001 17.8252C4.00093 17.8737 3.87185 17.9384 3.74277 18.0032C3.62982 18.0841 3.50075 18.1488 3.3878 18.2297C3.27486 18.3106 3.16191 18.4077 3.0651 18.5048C2.95216 18.5857 2.83921 18.699 2.7424 18.796C2.64558 18.9093 2.54877 19.0064 2.4681 19.1197C2.38743 19.2491 2.29062 19.3624 2.22607 19.4918C2.1454 19.6051 2.06473 19.7345 2.00018 19.864C1.93562 20.0096 1.87111 20.1391 1.8227 20.2847C1.77429 20.4141 1.72589 20.5598 1.67748 20.7054C1.64524 20.8348 1.61292 20.9643 1.59681 21.0937C1.59681 21.11 1.58065 21.1261 1.58065 21.1423C1.54841 21.2879 1.54841 21.4821 1.53224 21.5792C1.51608 21.6924 1.5 21.7895 1.5 21.9028C1.5 21.9675 1.5 22.0484 1.51616 22.1131C1.53232 22.2264 1.5484 22.3235 1.58073 22.4206C1.61297 22.5177 1.64529 22.6147 1.69367 22.7118V22.728C1.74207 22.8251 1.80662 22.9222 1.87115 23.0193C1.93572 23.1164 2.00024 23.2135 2.08091 23.3106C2.16158 23.3915 2.25839 23.4885 2.35521 23.5695C2.45202 23.6665 2.54883 23.7474 2.66177 23.8283C3.04901 24.1681 3.14582 24.2814 3.64601 24.5403C3.72668 24.5889 3.80736 24.6212 3.90417 24.6698C3.92034 24.6698 3.93642 24.686 3.95258 24.686C3.95258 24.7183 3.95258 24.7345 3.96874 24.7669C3.9849 24.8963 4.01715 25.0258 4.04941 25.1552C4.08166 25.3008 4.13009 25.4303 4.1785 25.5436C4.22691 25.6406 4.25917 25.7377 4.30758 25.8348C4.32374 25.8672 4.33982 25.8996 4.35598 25.9157C4.42055 26.0452 4.48506 26.1584 4.5496 26.2717C4.63028 26.385 4.71095 26.4982 4.79163 26.6115C4.8723 26.7086 4.96911 26.8219 5.06592 26.9189C5.16273 27.016 5.25954 27.0969 5.37249 27.194C5.37249 27.194 5.38865 27.2102 5.40474 27.2102C5.50155 27.2911 5.59836 27.3721 5.69517 27.4368C5.80811 27.5177 5.92106 27.5824 6.05014 27.6471C6.16309 27.7119 6.29216 27.7766 6.42124 27.8251C6.51805 27.8737 6.63099 27.906 6.74394 27.9384C6.76011 27.9546 6.77619 27.9546 6.80851 27.9707C6.87308 27.987 6.95372 28.0031 7.01826 28.0193C6.96986 28.893 6.9537 29.7183 7.08283 30.0095C7.22804 30.3331 7.93798 29.3461 8.64793 28.2134C8.55111 29.3299 8.48657 30.6406 8.64793 31.0289C8.82541 31.4334 9.79351 30.1713 10.6325 28.7798C22.0723 26.1261 32.5116 34.0548 33.6088 45.252C33.3991 43.5044 31.2531 42.5336 30.2689 42.7763C29.7848 43.9737 28.9619 45.5109 27.6389 46.4656C27.7518 45.3976 27.7034 44.2973 27.4775 43.2294C27.1225 44.718 26.4287 46.1096 25.4768 47.307C23.9439 47.4202 22.4111 46.6759 21.6043 45.5594C21.5398 45.5109 21.5237 45.4138 21.4753 45.3491C21.4269 45.2358 21.3785 45.1225 21.3462 45.0093C21.2978 44.896 21.2655 44.7827 21.2494 44.6695C21.2332 44.5562 21.2332 44.4429 21.2332 44.3135C21.2332 44.2326 21.2332 44.1517 21.2332 44.0708C21.2494 43.9575 21.2816 43.8442 21.3139 43.731C21.3461 43.6177 21.3785 43.5044 21.4268 43.3912C21.4914 43.2779 21.5398 43.1646 21.6205 43.0514C21.8948 42.2747 21.8948 41.6436 21.3946 41.2715C21.2978 41.2067 21.201 41.1582 21.088 41.1097C21.0234 41.0935 20.9428 41.0611 20.8783 41.0449C20.8298 41.0287 20.7976 41.0126 20.7492 40.9964C20.6362 40.964 20.5233 40.9316 20.4103 40.9155C20.2974 40.8831 20.1844 40.8669 20.0715 40.8669C19.9586 40.8507 19.8295 40.8346 19.7165 40.8346C19.6359 40.8346 19.5552 40.8508 19.4745 40.8508C19.3454 40.8508 19.2325 40.867 19.1195 40.8993C19.0066 40.9156 18.8936 40.9317 18.7807 40.9641C18.6678 40.9964 18.5548 41.0288 18.4419 41.0774C18.3289 41.1259 18.2321 41.1744 18.1192 41.223C18.0224 41.2715 17.9255 41.3362 17.8126 41.3848C14.0531 43.8443 16.2959 49.6047 18.8614 51.2714C17.8933 51.4493 16.909 51.6597 16.6347 51.8701C16.6186 51.8863 16.6025 51.9024 16.6025 51.9024C17.2963 52.3231 18.0224 52.6791 18.7807 52.9865C19.8134 53.3263 20.9105 53.6338 21.3946 53.7632V53.7794C22.7338 54.0545 24.0891 54.1516 25.4606 54.0707C32.6084 53.5691 38.4655 48.1161 39.5304 40.9317C39.5626 41.0773 39.5949 41.2068 39.6272 41.3524C39.6756 41.6437 39.7401 41.9511 39.7724 42.2586V42.2748C39.8046 42.4204 39.8208 42.566 39.837 42.6955V42.7602C39.8531 42.9059 39.8692 43.0515 39.8692 43.1809C39.8854 43.3589 39.9015 43.5369 39.9015 43.7149V43.9738C39.9015 44.0547 39.9176 44.1518 39.9176 44.2327C39.9176 44.3298 39.9015 44.4269 39.9015 44.524V44.7505C39.9015 44.8638 39.8853 44.9608 39.8853 45.0741C39.8853 45.1389 39.8853 45.2036 39.8691 45.2845C39.8691 45.3977 39.853 45.511 39.853 45.6404C39.8368 45.689 39.8368 45.7375 39.8368 45.7861C39.8206 45.9155 39.8045 46.0288 39.7884 46.1582C39.7884 46.2068 39.7884 46.2553 39.7722 46.3039C39.756 46.4657 39.7238 46.6113 39.7077 46.7731V46.7893V46.8055C39.6754 46.9512 39.6431 47.113 39.6108 47.2586V47.3072C39.5786 47.4528 39.5463 47.5984 39.514 47.744C39.514 47.7603 39.4979 47.7926 39.4979 47.8088C39.4656 47.9544 39.4333 48.1 39.3849 48.2457V48.2942C39.3365 48.456 39.2881 48.6016 39.2559 48.7473C39.2397 48.7635 39.2397 48.7796 39.2397 48.7796C39.1913 48.9414 39.1429 49.1032 39.0945 49.265C39.0299 49.4269 38.9816 49.5725 38.917 49.7343C38.8525 49.8961 38.8041 50.0579 38.7395 50.2035C38.675 50.3654 38.6104 50.511 38.5459 50.6728H38.5297C38.4652 50.8184 38.4006 50.9802 38.32 51.1259C38.3038 51.1744 38.2877 51.2068 38.2716 51.2391C38.2554 51.2553 38.2554 51.2715 38.2393 51.2877C37.1905 53.4074 35.6416 55.2682 33.7054 56.7245C33.5763 56.8054 33.4472 56.9025 33.3181 56.9995C33.2859 57.0319 33.2375 57.0481 33.2052 57.0804C33.0922 57.1613 32.9793 57.2423 32.8502 57.3232L32.8986 57.4203H32.9148C33.1407 57.3879 33.3666 57.3555 33.5924 57.3232H33.6086C34.0281 57.2584 34.4476 57.1775 34.8671 57.0966C34.9801 57.0804 35.1092 57.0481 35.2221 57.0157C35.3028 56.9995 35.3673 56.9834 35.448 56.9672C35.5609 56.951 35.6739 56.9186 35.7868 56.9024C35.8836 56.8701 35.9805 56.8539 36.0773 56.8215C37.6908 56.4332 39.2559 55.8992 40.7564 55.2682C38.191 58.7794 34.7542 61.6111 30.7366 63.4719C32.5921 63.3425 34.4476 63.035 36.2386 62.5172C42.741 60.5917 48.2108 56.2066 51.4862 50.3006C50.8247 54.0384 49.3403 57.5982 47.1459 60.705C48.711 59.6694 50.147 58.472 51.4539 57.1128C55.0682 53.3264 57.4401 48.5207 58.2468 43.359C58.7954 45.9155 58.9567 48.5531 58.7147 51.1582C70.3642 34.8639 59.6828 17.971 55.2134 13.5213C55.1972 13.4889 55.1812 13.4727 55.1812 13.4404C55.165 13.4566 55.165 13.4566 55.165 13.4727C55.165 13.4565 55.165 13.4565 55.1488 13.4404C55.1488 13.6345 55.1327 13.8287 55.1166 14.0229C55.0682 14.395 55.0198 14.751 54.9552 15.107C54.8746 15.463 54.7778 15.8189 54.6809 16.1749C54.568 16.5147 54.4389 16.8707 54.2937 17.2105C54.1485 17.5341 53.9871 17.8739 53.8097 18.1976C53.6322 18.505 53.4385 18.8286 53.2288 19.1199C53.019 19.4273 52.7931 19.7186 52.5672 19.9936C52.3252 20.2849 52.0671 20.5438 51.8089 20.8027C51.6476 20.9483 51.5023 21.0778 51.341 21.2072C51.2119 21.3205 51.099 21.4176 50.9699 21.5308C50.6794 21.7574 50.389 21.9677 50.0663 22.1619C49.7598 22.3561 49.4371 22.5502 49.1144 22.712C48.7755 22.8739 48.4367 23.0195 48.0979 23.1651C47.759 23.2946 47.404 23.4078 47.0491 23.5049C46.6941 23.602 46.323 23.6829 45.968 23.7476C45.5969 23.8124 45.2258 23.8447 44.8708 23.8771C44.6127 23.8933 44.3545 23.9094 44.0964 23.9094C43.7253 23.9094 43.3542 23.8771 42.9992 23.8447C42.6281 23.8123 42.257 23.7638 41.902 23.6828C41.5309 23.6181 41.1759 23.521 40.8209 23.4078H40.8048C41.1598 23.3754 41.5147 23.343 41.8697 23.2783C42.2408 23.2136 42.5958 23.1327 42.9508 23.0356C43.3057 22.9385 43.6607 22.8252 43.9995 22.6958C44.3545 22.5664 44.6933 22.4046 45.016 22.2427C45.3549 22.0809 45.6614 21.9029 45.9841 21.7088C46.2907 21.4984 46.5973 21.2881 46.8877 21.0615C47.1781 20.835 47.4524 20.5923 47.7106 20.3334C47.9849 20.0907 48.2269 19.8156 48.4689 19.5405C48.711 19.2493 48.9368 18.958 49.1466 18.6667C49.1789 18.6182 49.2112 18.5535 49.2434 18.5049C49.4048 18.246 49.5661 17.9871 49.7113 17.7282C49.8888 17.4046 50.0502 17.081 50.1954 16.7412C50.3406 16.4014 50.4697 16.0616 50.5826 15.7056C50.6956 15.3658 50.7762 15.0098 50.8569 14.6539C50.9215 14.2817 50.986 13.9257 51.0183 13.5697C51.0505 13.1976 51.0828 12.8254 51.0828 12.4694C51.0828 12.2105 51.0667 11.9516 51.0506 11.6928C51.0183 11.3206 50.9699 10.9646 50.9215 10.6086C50.8569 10.2365 50.7763 9.88049 50.6795 9.5245C50.5665 9.18471 50.4536 8.82872 50.3245 8.48893C50.1954 8.14912 50.0341 7.80932 49.8727 7.4857C49.6952 7.16208 49.5178 6.83846 49.3241 6.53103C49.1144 6.22359 48.9046 5.93233 48.6787 5.64107C48.4367 5.36599 48.1947 5.09092 47.9365 4.81584C47.8074 4.6864 47.6622 4.54077 47.517 4.41132C46.7909 3.84498 46.0326 3.31101 45.2742 2.82558C45.1613 2.76084 45.0645 2.71232 44.9515 2.66377C44.4191 2.32397 43.9189 2.14589 43.4187 1.98408Z" fill="#E0234E"/>
</svg>
