<svg xmlns="http://www.w3.org/2000/svg" width="64" height="64" viewBox="0 0 64 64" fill="none">
  <g clip-path="url(#clip0_2404_783)">
    <mask id="mask0_2404_783" style="mask-type:alpha" maskUnits="userSpaceOnUse" x="0" y="0" width="64" height="64">
      <path d="M32 64C49.6731 64 64 49.6731 64 32C64 14.3269 49.6731 0 32 0C14.3269 0 0 14.3269 0 32C0 49.6731 14.3269 64 32 64Z" fill="black"/>
    </mask>
    <g mask="url(#mask0_2404_783)">
      <path d="M31.9997 62.9333C49.0837 62.9333 62.9331 49.084 62.9331 32C62.9331 14.916 49.0837 1.06665 31.9997 1.06665C14.9157 1.06665 1.06641 14.916 1.06641 32C1.06641 49.084 14.9157 62.9333 31.9997 62.9333Z" fill="black" stroke="white" stroke-width="6"/>
      <path d="M53.1586 56.0071L24.584 19.2H19.2002V44.7893H23.5073V24.6697L49.7776 58.6115C50.963 57.8183 52.0923 56.9475 53.1586 56.0071Z" fill="url(#paint0_linear_2404_783)"/>
      <path d="M45.1553 19.2H40.8887V44.8H45.1553V19.2Z" fill="url(#paint1_linear_2404_783)"/>
    </g>
  </g>
  <defs>
    <linearGradient id="paint0_linear_2404_783" x1="38.7558" y1="41.4222" x2="51.378" y2="57.0666" gradientUnits="userSpaceOnUse">
      <stop stop-color="white"/>
      <stop offset="1" stop-color="white" stop-opacity="0"/>
    </linearGradient>
    <linearGradient id="paint1_linear_2404_783" x1="43.022" y1="19.2" x2="42.9505" y2="38" gradientUnits="userSpaceOnUse">
      <stop stop-color="white"/>
      <stop offset="1" stop-color="white" stop-opacity="0"/>
    </linearGradient>
    <clipPath id="clip0_2404_783">
      <rect width="64" height="64" fill="white"/>
    </clipPath>
  </defs>
</svg>