<svg width="65" height="64" viewBox="0 0 65 64" fill="none" xmlns="http://www.w3.org/2000/svg">
<path fill-rule="evenodd" clip-rule="evenodd" d="M11.7622 55.6039L10.0262 9.37595C9.97158 7.84929 11.1449 6.55729 12.6689 6.46395L43.4796 4.53729L45.8329 5.33329L48.8929 4.19862L51.9809 4.00529C53.5316 3.90662 54.8689 5.08395 54.9689 6.63462C54.9729 6.69462 54.9742 6.75595 54.9742 6.81729V57.1866C54.9729 58.7426 53.7102 60.0026 52.1542 60.0013C52.1129 60.0013 52.0716 60 52.0316 59.9986L14.4502 58.3106C12.9862 58.2453 11.8182 57.0693 11.7622 55.6039Z" fill="#FF4081"/>
<path fill-rule="evenodd" clip-rule="evenodd" d="M48.8909 4.19873L43.4816 4.53473L43.2189 10.8827C43.2096 11.1147 43.3896 11.3094 43.6216 11.3201C43.7189 11.3241 43.8136 11.2947 43.8909 11.2361L46.3549 9.3654L48.4376 11.0067C48.6189 11.1507 48.8843 11.1201 49.0269 10.9387C49.0883 10.8601 49.1203 10.7627 49.1176 10.6627L48.8936 4.20006L48.8909 4.19873ZM44.6803 25.4507C43.6923 26.2201 36.3109 26.7441 36.3109 25.6494C36.4683 21.4694 34.5976 21.2867 33.5563 21.2867C32.5709 21.2867 30.9069 21.5841 30.9069 23.8241C30.9069 26.1054 33.3376 27.3934 36.1909 28.9054C40.2429 31.0534 45.1509 33.6547 45.1509 40.1947C45.1509 46.4667 40.0549 49.9281 33.5589 49.9281C26.8536 49.9281 20.9923 47.2147 21.6536 37.8094C21.9136 36.7067 30.4403 36.9694 30.4403 37.8094C30.3336 41.6907 31.2189 42.8321 33.4536 42.8321C35.1696 42.8321 35.9483 41.8854 35.9483 40.2947C35.9483 37.8841 33.4176 36.4614 30.5029 34.8267C26.5576 32.6121 21.9149 30.0054 21.9149 24.0214C21.9149 18.0521 26.0203 14.0707 33.3496 14.0707C40.6789 14.0707 44.6803 17.9921 44.6803 25.4507Z" fill="white"/>
</svg>
