<svg width="105" height="64" viewBox="0 0 105 64" fill="none" xmlns="http://www.w3.org/2000/svg">
<g clip-path="url(#clip0_2404_823)">
<mask id="mask0_2404_823" style="mask-type:luminance" maskUnits="userSpaceOnUse" x="0" y="0" width="105" height="63">
<path d="M0.272461 0H105V62.8364H0.272461V0Z" fill="white"/>
</mask>
<g mask="url(#mask0_2404_823)">
<path fill-rule="evenodd" clip-rule="evenodd" d="M52.6361 0C38.6725 0 29.9452 6.98182 26.4543 20.9455C31.6906 13.9636 37.7997 11.3455 44.7816 13.0909C48.7651 14.0858 51.6121 16.9775 54.7636 20.1755C59.8972 25.3867 65.8395 31.4182 78.8179 31.4182C92.7815 31.4182 101.509 24.4364 105 10.4727C99.7634 17.4545 93.6543 20.0727 86.6725 18.3273C82.6889 17.3324 79.8419 14.4407 76.6904 11.2427C71.5568 6.03151 65.6145 0 52.6361 0ZM26.4543 31.4182C12.4906 31.4182 3.76337 38.4 0.272461 52.3636C5.50882 45.3818 11.6179 42.7636 18.5997 44.5091C22.5832 45.5059 25.4303 48.3956 28.5818 51.5937C33.7154 56.8048 39.6577 62.8364 52.6361 62.8364C66.5997 62.8364 75.327 55.8545 78.8179 41.8909C73.5815 48.8727 67.4725 51.4909 60.4906 49.7455C56.5071 48.7505 53.6601 45.8589 50.5086 42.6608C45.375 37.4497 39.4327 31.4182 26.4543 31.4182Z" fill="#38BDF8"/>
</g>
</g>
<defs>
<clipPath id="clip0_2404_823">
<rect width="104.727" height="64" fill="white" transform="translate(0.272461)"/>
</clipPath>
</defs>
</svg>
