<svg width="64" height="64" viewBox="0 0 64 64" fill="none" xmlns="http://www.w3.org/2000/svg">
<path d="M56.267 29.4667L34.5337 7.73341C33.867 7.06675 32.9337 6.66675 32.0003 6.66675C31.067 6.66675 30.1337 7.06675 29.467 7.73341L24.8003 12.4001L30.267 17.8667C30.8003 17.6001 31.3337 17.4667 32.0003 17.4667C34.267 17.4667 36.0003 19.2001 36.0003 21.4667C36.0003 22.1334 35.867 22.6667 35.6003 23.2001L40.9337 28.5334C41.467 28.2667 42.0003 28.1334 42.667 28.1334C44.9337 28.1334 46.667 29.8667 46.667 32.1334C46.667 34.4001 44.9337 36.1334 42.667 36.1334C40.4003 36.1334 38.667 34.4001 38.667 32.1334C38.667 31.4667 38.8003 30.9334 39.067 30.4001L33.7337 25.0667C33.6003 25.0667 33.467 25.2001 33.3337 25.2001V39.0667C34.9337 39.6001 36.0003 41.0667 36.0003 42.8001C36.0003 45.0667 34.267 46.8001 32.0003 46.8001C29.7337 46.8001 28.0003 45.0667 28.0003 42.8001C28.0003 41.0667 29.067 39.6001 30.667 39.0667V25.0667C29.067 24.5334 28.0003 23.0667 28.0003 21.3334C28.0003 20.6667 28.1337 20.1334 28.4003 19.6001L22.9337 14.1334L7.73366 29.4667C7.06699 30.1334 6.66699 31.0667 6.66699 32.0001C6.66699 32.9334 7.06699 33.8667 7.73366 34.5334L29.467 56.2668C30.1337 56.9334 31.067 57.3334 32.0003 57.3334C32.9337 57.3334 33.867 56.9334 34.5337 56.2668L56.267 34.5334C56.9337 33.8667 57.3337 32.9334 57.3337 32.0001C57.3337 31.0667 56.9337 30.1334 56.267 29.4667Z" fill="#F4511E"/>
</svg>
